<svg width="32" height="32" viewBox="0 0 32 32" fill="none" xmlns="http://www.w3.org/2000/svg">
<path d="M5.4675 23.75C5.5425 23.4762 5.37812 23.0956 5.22125 22.8213C5.17262 22.7393 5.11962 22.66 5.0625 22.5837C3.71704 20.5433 2.99991 18.1529 3 15.7087C2.9775 8.69312 8.795 3 15.9887 3C22.2625 3 27.5 7.34625 28.7231 13.1156C28.9067 13.971 28.9995 14.8433 29 15.7181C29 22.7438 23.4069 28.5263 16.2131 28.5263C15.0687 28.5263 13.5256 28.2387 12.6837 28.0031C11.8419 27.7675 11.0012 27.455 10.7844 27.3713C10.5623 27.286 10.3266 27.2421 10.0887 27.2419C9.8294 27.241 9.57256 27.2926 9.33375 27.3937L5.09375 28.9237C5.00109 28.9638 4.90289 28.9895 4.8025 29C4.72309 28.9998 4.64452 28.9838 4.57133 28.953C4.49814 28.9222 4.43179 28.8772 4.37611 28.8206C4.32043 28.7639 4.27652 28.6968 4.24694 28.6232C4.21735 28.5495 4.20267 28.4706 4.20375 28.3913C4.20896 28.3216 4.22153 28.2527 4.24125 28.1856L5.4675 23.75Z" stroke="#F2F2F2" stroke-width="2" stroke-miterlimit="10" stroke-linecap="round"/>
<path d="M10 18C11.1046 18 12 17.1046 12 16C12 14.8954 11.1046 14 10 14C8.89543 14 8 14.8954 8 16C8 17.1046 8.89543 18 10 18Z" fill="#F2F2F2"/>
<path d="M16 18C17.1046 18 18 17.1046 18 16C18 14.8954 17.1046 14 16 14C14.8954 14 14 14.8954 14 16C14 17.1046 14.8954 18 16 18Z" fill="#F2F2F2"/>
<path d="M22 18C23.1046 18 24 17.1046 24 16C24 14.8954 23.1046 14 22 14C20.8954 14 20 14.8954 20 16C20 17.1046 20.8954 18 22 18Z" fill="#F2F2F2"/>
</svg>
