<svg width="48" height="48" viewBox="0 0 48 48" fill="none" xmlns="http://www.w3.org/2000/svg">
<circle cx="24" cy="24" r="24" fill="#828282"/>
<path d="M26.3866 24.0002L33.0663 17.3206C33.3834 17.0041 33.5617 16.5747 33.5621 16.1267C33.5625 15.6788 33.3849 15.2491 33.0684 14.932C32.752 14.615 32.3226 14.4367 31.8746 14.4363C31.4267 14.4359 30.9969 14.6135 30.6799 14.9299L24.0002 21.6096L17.3206 14.9299C17.0035 14.6129 16.5736 14.4348 16.1252 14.4348C15.6769 14.4348 15.2469 14.6129 14.9299 14.9299C14.6129 15.2469 14.4348 15.6769 14.4348 16.1252C14.4348 16.5736 14.6129 17.0035 14.9299 17.3206L21.6096 24.0002L14.9299 30.6799C14.6129 30.9969 14.4348 31.4269 14.4348 31.8752C14.4348 32.3236 14.6129 32.7535 14.9299 33.0706C15.2469 33.3876 15.6769 33.5657 16.1252 33.5657C16.5736 33.5657 17.0035 33.3876 17.3206 33.0706L24.0002 26.3909L30.6799 33.0706C30.9969 33.3876 31.4269 33.5657 31.8752 33.5657C32.3236 33.5657 32.7535 33.3876 33.0706 33.0706C33.3876 32.7535 33.5657 32.3236 33.5657 31.8752C33.5657 31.4269 33.3876 30.9969 33.0706 30.6799L26.3866 24.0002Z" fill="#F2F2F2"/>
</svg>
