<svg width="32" height="32" viewBox="0 0 32 32" fill="none" xmlns="http://www.w3.org/2000/svg">
<path d="M21.8331 4.33313C23.3789 4.33774 24.8601 4.95385 25.9531 6.04689C27.0462 7.13993 27.6623 8.62109 27.6669 10.1669V21.8331C27.6623 23.3789 27.0462 24.8601 25.9531 25.9531C24.8601 27.0462 23.3789 27.6623 21.8331 27.6669H10.1669C8.62109 27.6623 7.13993 27.0462 6.04689 25.9531C4.95385 24.8601 4.33774 23.3789 4.33313 21.8331V10.1669C4.33774 8.62109 4.95385 7.13993 6.04689 6.04689C7.13993 4.95385 8.62109 4.33774 10.1669 4.33313H21.8331ZM21.8331 2H10.1669C5.675 2 2 5.675 2 10.1669V21.8331C2 26.325 5.675 30 10.1669 30H21.8331C26.325 30 30 26.325 30 21.8331V10.1669C30 5.675 26.325 2 21.8331 2Z" fill="#F2F2F2"/>
<path d="M23.5831 10.1669C23.237 10.1669 22.8987 10.0642 22.6109 9.87194C22.3231 9.67965 22.0988 9.40633 21.9663 9.08656C21.8339 8.76679 21.7992 8.41493 21.8668 8.07546C21.9343 7.73599 22.101 7.42417 22.3457 7.17943C22.5904 6.93469 22.9023 6.76802 23.2417 6.7005C23.5812 6.63297 23.9331 6.66763 24.2528 6.80008C24.5726 6.93253 24.8459 7.15684 25.0382 7.44462C25.2305 7.73241 25.3331 8.07075 25.3331 8.41687C25.3336 8.64682 25.2887 8.87461 25.2009 9.08715C25.1132 9.29969 24.9843 9.49281 24.8217 9.65541C24.6591 9.81801 24.466 9.94689 24.2534 10.0347C24.0409 10.1224 23.8131 10.1674 23.5831 10.1669Z" fill="#F2F2F2"/>
<path d="M16 11.3331C16.923 11.3331 17.8253 11.6068 18.5928 12.1196C19.3602 12.6324 19.9584 13.3613 20.3116 14.2141C20.6649 15.0668 20.7573 16.0052 20.5772 16.9105C20.3971 17.8157 19.9527 18.6473 19.3 19.3C18.6473 19.9527 17.8157 20.3971 16.9105 20.5772C16.0052 20.7573 15.0668 20.6649 14.2141 20.3116C13.3613 19.9584 12.6324 19.3602 12.1196 18.5928C11.6068 17.8253 11.3331 16.923 11.3331 16C11.3345 14.7627 11.8266 13.5764 12.7015 12.7015C13.5764 11.8266 14.7627 11.3344 16 11.3331ZM16 9C14.6155 9 13.2622 9.41054 12.111 10.1797C10.9599 10.9489 10.0627 12.0421 9.53285 13.3212C9.00303 14.6003 8.86441 16.0078 9.13451 17.3656C9.4046 18.7235 10.0713 19.9708 11.0503 20.9497C12.0292 21.9287 13.2765 22.5954 14.6344 22.8655C15.9922 23.1356 17.3997 22.997 18.6788 22.4672C19.9579 21.9373 21.0511 21.0401 21.8203 19.889C22.5895 18.7378 23 17.3845 23 16C23 14.1435 22.2625 12.363 20.9497 11.0503C19.637 9.7375 17.8565 9 16 9Z" fill="#F2F2F2"/>
</svg>
