<svg width="32" height="32" viewBox="0 0 32 32" fill="none" xmlns="http://www.w3.org/2000/svg">
<path d="M28.4544 2H3.54562C3.13575 2.00017 2.74271 2.16306 2.45289 2.45289C2.16306 2.74271 2.00017 3.13575 2 3.54562V28.4544C2.00017 28.8642 2.16306 29.2573 2.45289 29.5471C2.74271 29.8369 3.13575 29.9998 3.54562 30H16V19H12.6531V15H16V11.8125C16 8.19625 18.5081 6.2275 21.7388 6.2275C23.2844 6.2275 24.9469 6.34375 25.3331 6.395V10.1719H22.7594C21.0019 10.1719 20.6669 11.0031 20.6669 12.2281V15H24.8544L24.3075 19H20.6669V30H28.4544C28.8642 29.9998 29.2573 29.8369 29.5471 29.5471C29.8369 29.2573 29.9998 28.8642 30 28.4544V3.54562C29.9998 3.13575 29.8369 2.74271 29.5471 2.45289C29.2573 2.16306 28.8642 2.00017 28.4544 2Z" fill="#F2F2F2"/>
</svg>
