<svg width="24" height="24" viewBox="0 0 24 24" fill="none" xmlns="http://www.w3.org/2000/svg">
<path d="M22.3402 10.6428L22.3327 10.6396L2.31328 2.33612C2.1449 2.26565 1.96167 2.23801 1.77999 2.25567C1.59831 2.27334 1.42384 2.33577 1.27219 2.43737C1.11197 2.54236 0.980359 2.68553 0.889207 2.85401C0.798055 3.02248 0.750218 3.21098 0.75 3.40253V8.713C0.750089 8.97487 0.841528 9.2285 1.00856 9.43018C1.17558 9.63186 1.40774 9.76896 1.665 9.81784L12.5836 11.8367C12.6265 11.8449 12.6652 11.8677 12.6931 11.9014C12.7209 11.935 12.7362 11.9773 12.7362 12.021C12.7362 12.0646 12.7209 12.1069 12.6931 12.1406C12.6652 12.1742 12.6265 12.1971 12.5836 12.2052L1.66547 14.2241C1.40828 14.2728 1.17614 14.4098 1.00903 14.6113C0.841932 14.8128 0.750328 15.0662 0.75 15.328V20.6394C0.749876 20.8223 0.795166 21.0024 0.881807 21.1635C0.968448 21.3246 1.09373 21.4616 1.24641 21.5624C1.43006 21.6844 1.6456 21.7496 1.86609 21.7499C2.01938 21.7497 2.1711 21.719 2.31234 21.6594L22.3313 13.4033L22.3402 13.3991C22.6096 13.2833 22.8392 13.091 23.0006 12.8461C23.1619 12.6011 23.2479 12.3143 23.2479 12.021C23.2479 11.7277 23.1619 11.4408 23.0006 11.1959C22.8392 10.9509 22.6096 10.7586 22.3402 10.6428Z" fill="#FBFBFB"/>
</svg>
