<svg width="444" height="320" viewBox="0 0 444 320" fill="none" xmlns="http://www.w3.org/2000/svg">
<rect width="444" height="320" rx="16" fill="#2D9CDB"/>
<g clip-path="url(#clip0)">
<g opacity="0.5">
<g opacity="0.5">
<path opacity="0.5" d="M162.133 144.164C168.109 150.34 176.477 148.148 179.465 146.355C183.848 143.766 192.414 140.777 196.797 133.605C204.766 120.258 206.16 106.113 198.988 97.3476C186.238 81.4101 166.117 88.1836 158.148 101.531C152.57 111.691 156.355 137.988 162.133 144.164Z" fill="#BDE5EC"/>
<path opacity="0.5" d="M164.723 102.527C164.723 106.91 161.336 110.297 156.953 110.297C152.57 110.297 149.184 106.91 149.184 102.527" fill="#BDE5EC"/>
<path opacity="0.5" d="M192.812 127.031C189.824 130.02 189.824 135 192.812 137.988C195.801 140.977 200.781 140.977 203.77 137.988C203.77 137.988 210.941 119.859 208.152 107.508C205.363 94.957 196 94.3594 196 94.3594C196 94.3594 191.418 84.1992 178.07 85.1953C164.922 86.1914 155.758 94.3594 155.758 94.3594C152.77 97.3477 152.77 102.328 155.758 105.316C157.352 106.91 159.344 107.508 161.336 107.508C163.328 107.508 165.32 106.711 166.914 105.316" fill="#BDE5EC"/>
</g>
<g opacity="0.5">
<path opacity="0.5" d="M274.891 144.164C268.914 150.34 260.547 148.148 257.559 146.355C253.176 143.766 244.609 140.777 240.227 133.605C232.258 120.258 230.863 106.113 238.035 97.3476C250.785 81.4101 270.906 88.1836 278.875 101.531C284.453 111.691 280.668 137.988 274.891 144.164Z" fill="#BDE5EC"/>
<path opacity="0.5" d="M272.301 102.527C272.301 106.91 275.687 110.297 280.07 110.297C284.453 110.297 287.84 106.91 287.84 102.527" fill="#BDE5EC"/>
<path opacity="0.5" d="M244.211 127.031C247.199 130.02 247.199 135 244.211 137.988C241.223 140.977 236.242 140.977 233.254 137.988C233.254 137.988 226.082 119.859 228.871 107.508C231.66 94.957 241.023 94.3594 241.023 94.3594C241.023 94.3594 245.605 84.1992 258.953 85.1953C272.102 86.1914 281.266 94.3594 281.266 94.3594C284.254 97.3477 284.254 102.328 281.266 105.316C279.672 106.91 277.68 107.508 275.687 107.508C273.695 107.508 271.703 106.711 270.109 105.316" fill="#BDE5EC"/>
</g>
<path opacity="0.5" d="M204.965 110.098C214.977 110.098 223.094 101.981 223.094 91.9688C223.094 81.9564 214.977 73.8398 204.965 73.8398C194.953 73.8398 186.836 81.9564 186.836 91.9688C186.836 101.981 194.953 110.098 204.965 110.098Z" fill="#BDE5EC"/>
<path opacity="0.5" d="M269.313 142.371V164.086L287.242 186.996L280.27 266.086H151.973L156.953 172.055L179.664 155.719L183.848 131.613L196.797 130.02L207.953 148.547C210.941 153.527 216.121 157.113 221.898 157.91C230.465 159.105 238.832 154.922 242.617 147.152L250.387 131.613L269.313 142.371Z" fill="#BDE5EC"/>
</g>
<path d="M308.16 247.758C311.547 248.754 318.918 250.547 324.895 251.941C330.473 253.336 334.855 257.52 336.449 262.898L344.02 287.801H246.402L253.176 262.699C254.57 257.32 258.953 252.937 264.332 251.344L279.871 246.762L308.16 247.758Z" fill="#BDE5EC"/>
<path d="M306.168 232.617L308.16 247.758C308.16 247.758 290.828 265.289 279.871 247.16C285.25 232.617 280.867 223.852 280.867 223.852L281.664 215.285L297.004 217.078L306.168 232.617Z" fill="#BDE5EC"/>
<path d="M316.527 232.816C309.953 239.789 300.59 237.199 297.203 235.406C292.422 232.617 282.66 229.23 277.879 221.262C268.914 206.32 267.52 190.582 275.289 180.621C289.633 162.891 311.945 170.461 320.711 185.402C327.285 196.559 323.102 225.844 316.527 232.816Z" fill="#BDE5EC"/>
<path d="M290.23 213.891C290.23 213.891 283.059 216.48 283.059 210.305C283.258 204.129 291.426 197.355 293.816 206.719" fill="#BDE5EC"/>
<path d="M294.016 188.59C294.016 199.148 302.582 207.914 313.34 207.914C323.898 207.914 332.664 199.348 332.664 188.59" fill="#BDE5EC"/>
<path d="M316.129 194.965C322.105 194.965 326.887 190.184 326.887 184.207C326.887 178.23 322.105 173.449 316.129 173.449" fill="#BDE5EC"/>
<path d="M261.344 245.367C269.91 251.344 281.465 249.152 287.441 240.586C293.418 232.02 291.227 220.465 282.66 214.488" fill="#BDE5EC"/>
<path d="M257.559 258.914C257.559 258.914 270.707 203.93 271.703 192.574C272.699 181.02 298.199 198.75 298.199 198.75V262.102" fill="#BDE5EC"/>
<path d="M134.242 245.168C130.656 246.164 122.887 248.156 116.512 249.75C110.535 251.145 105.953 255.727 104.16 261.504L96.1914 288.199H200.184L193.012 261.504C191.418 255.727 187.035 251.145 181.059 249.352L164.324 244.57L134.242 245.168Z" fill="#BDE5EC"/>
<path d="M136.434 229.031L134.441 245.168C134.441 245.168 152.969 263.695 164.523 244.57C158.945 229.031 163.527 219.668 163.527 219.668L162.531 210.305L146.195 212.297L136.434 229.031Z" fill="#BDE5EC"/>
<path d="M125.277 229.23C132.25 236.602 142.211 234.012 145.797 231.82C150.977 228.832 161.336 225.246 166.516 216.68C176.078 200.941 177.672 184.008 169.305 173.648C154.164 154.723 130.258 162.891 120.895 178.629C113.922 190.582 118.305 221.859 125.277 229.23Z" fill="#BDE5EC"/>
<path d="M153.367 209.109C153.367 209.109 161.137 211.898 160.938 205.324C160.738 198.75 152.172 191.379 149.582 201.539" fill="#BDE5EC"/>
<path d="M128.465 179.625C128.465 184.805 124.281 188.789 119.301 188.789C114.32 188.789 109.938 184.805 109.938 179.625" fill="#BDE5EC"/>
<path d="M130.855 182.812C127.27 186.398 121.492 186.398 117.906 182.812C114.32 179.227 114.32 173.449 117.906 169.863" fill="#BDE5EC"/>
<path d="M174.684 221.859C171.098 225.445 165.32 225.445 161.734 221.859C158.148 218.273 158.148 212.496 161.734 208.91" fill="#BDE5EC"/>
<path d="M209.945 241.582C205.961 242.578 197.594 244.77 190.621 246.562C184.246 248.156 179.066 252.937 177.273 259.312L168.707 288H281.266L273.297 259.113C271.504 252.738 266.723 247.957 260.547 245.965L242.617 240.785L209.945 241.582Z" fill="#2652E4"/>
<path d="M212.336 224.25L210.145 241.582C210.145 241.582 230.266 261.703 242.617 240.984C236.441 224.25 241.422 214.09 241.422 214.09L240.625 204.129L222.895 206.121L212.336 224.25Z" fill="#FFC298"/>
<path d="M235.445 210.703C235.445 210.305 240.625 207.117 240.625 206.719L240.426 204.129L222.695 206.121L212.336 224.25L210.742 236.402C215.723 236.801 222.098 234.012 224.488 232.816C232.258 229.031 234.848 221.859 235.445 210.703Z" fill="#E1927A"/>
<path d="M200.98 224.051C209.148 232.617 220.703 229.629 224.887 227.238C230.863 223.652 240.426 215.684 242.617 204.129C244.609 192.574 244.609 182.813 236.441 172.055C228.273 161.297 196.797 163.488 195.801 165.281C187.434 178.828 192.812 215.484 200.98 224.051Z" fill="#FFC298"/>
<path d="M181.258 158.707C181.258 158.707 177.473 172.852 192.016 178.23C206.16 183.41 221.5 172.852 221.5 172.852C221.5 172.852 221.5 195.762 241.621 213.891C258.953 209.508 268.117 166.875 238.832 152.332C208.352 137.191 191.02 162.492 191.02 162.492L181.258 158.707Z" fill="#892E1D"/>
<path d="M230.664 202.734C230.664 202.734 239.031 205.723 238.832 198.551C238.633 191.379 229.27 183.609 226.48 194.566" fill="#FFC298"/>
<path d="M193.809 163.687C189.625 163.687 186.238 160.301 186.238 156.117C186.238 151.934 189.625 148.547 193.809 148.547" fill="#892E1D"/>
<path d="M289.832 56.3086L250.984 123.445C248.195 128.426 251.781 134.602 257.359 134.602H335.055C340.832 134.602 344.418 128.426 341.43 123.445L302.582 56.3086C299.793 51.3281 292.82 51.3281 289.832 56.3086Z" fill="#E44450"/>
<path d="M303.18 75.832L299.195 105.516H293.418L289.234 75.832H303.18Z" fill="white"/>
<path d="M296.207 123.047C298.958 123.047 301.188 120.817 301.188 118.066C301.188 115.316 298.958 113.086 296.207 113.086C293.456 113.086 291.227 115.316 291.227 118.066C291.227 120.817 293.456 123.047 296.207 123.047Z" fill="white"/>
</g>
<defs>
<clipPath id="clip0">
<rect x="94" y="33" width="255" height="255" fill="white"/>
</clipPath>
</defs>
</svg>
