<svg width="444" height="320" viewBox="0 0 444 320" fill="none" xmlns="http://www.w3.org/2000/svg">
<rect width="444" height="320" rx="16" fill="#3498DB"/>
<g clip-path="url(#clip0)">
<path d="M142.3 61.6C139.7 64.1 137.2 66.3 134.5 68.6C131.9 70.9 129.2 73.1 126.4 75.2C120.9 79.5 115.2 83.6 108.8 87.3C105.2 89.4 100.6 88.1 98.6 84.5C96.5 80.9 97.8 76.3 101.4 74.3C101.6 74.2 101.9 74 102.1 73.9C107.8 71.4 113.5 68.2 119.1 64.8C121.9 63.1 124.7 61.2 127.4 59.4C130.1 57.5 132.9 55.6 135.4 53.7L135.5 53.6C137.8 51.9 141.1 52.3 142.9 54.6C144.5 56.8 144.2 59.8 142.3 61.6Z" fill="#E1927A"/>
<path d="M148.9 74.4C146.3 76.5 143.6 78.6 141 80.7C138.3 82.8 135.7 84.8 133 86.8C127.6 90.8 122.1 94.7 116.2 98.4C112.7 100.6 108.1 99.6 105.8 96.1C103.6 92.6 104.6 88 108.1 85.7C108.3 85.5 108.6 85.4 108.9 85.3C114.6 82.6 120.4 79.5 126.1 76.3C128.9 74.7 131.8 73 134.6 71.3C137.4 69.6 140.3 67.9 143 66.2C145.4 64.7 148.5 65.4 150 67.8C151.4 69.9 150.8 72.8 148.9 74.4Z" fill="#E1927A"/>
<path d="M152.6 87.8L122.3 107C118.8 109.2 114.2 108.2 111.9 104.7C109.7 101.2 110.7 96.6 114.2 94.3C114.5 94.1 114.8 94 115 93.8L147.5 78.6C150.1 77.4 153.2 78.5 154.4 81.1C155.7 83.6 154.8 86.4 152.6 87.8Z" fill="#E1927A"/>
<path d="M151.4 102.4C149.1 104.5 146.8 106 144.5 107.5C142.2 109 139.8 110.2 137.5 111.5C135.1 112.7 132.8 113.9 130.4 115C128 116.1 125.7 117.1 123.1 118.1C119.2 119.6 114.9 117.7 113.4 113.8C111.9 109.9 113.8 105.6 117.7 104.1C118 104 118.4 103.9 118.7 103.8C120.9 103.3 123.3 102.6 125.6 102C127.9 101.3 130.2 100.6 132.5 99.8C134.8 99 137 98.2 139.1 97.2C141.2 96.3 143.2 95.3 144.9 94.2L145.1 94.1C147.6 92.5 150.9 93.2 152.5 95.6C153.7 97.8 153.3 100.7 151.4 102.4Z" fill="#E1927A"/>
<path d="M135.4 111.9C126.5 115 113.9 136.7 99 136.5C84.1 136.3 70.4 120.8 73.1 107.7C74.4 101.5 81.6 85.4 84.3 80.7C93.5 64.7 108.3 73.9 112.5 76.3C118 79.4 135.4 111.9 135.4 111.9Z" fill="#E1927A"/>
<path d="M106.4 73L109.9 97.7C110.8 104.2 106.3 110.3 99.7 111.3C93.2 112.2 87.1 107.7 86.1 101.1C85.9 99.8 86 98.5 86.2 97.2L92.5 80.6L106.4 73Z" fill="#C1705D"/>
<path d="M111.5 66C109.2 69.2 107 72.5 104.8 75.9C103.7 77.6 102.7 79.3 101.6 81C101.3 81.5 101.2 81.7 101 82C100.9 82.3 100.7 82.6 100.6 82.9C100.3 83.5 100.1 84.2 100 84.8C99.7 86.2 99.7 87 99.4 89.4C99.2 91.4 98.9 93.4 98.7 95.4C98.3 99.4 97.9 103.4 97.7 107.4C97.4 114 91.7 119.1 85 118.7C78.4 118.3 73.3 112.6 73.7 105.9C73.8 104.3 74.2 102.7 74.9 101.4C76.7 97.8 78.3 94.1 79.9 90.4C80.7 88.6 81.5 86.7 82.3 84.9C82.7 83.9 83 83.2 83.6 81.8C84.1 80.5 84.7 79.3 85.4 78.2C86.1 77 86.8 75.9 87.6 74.9C88 74.4 88.4 73.9 88.8 73.4C89.2 72.9 89.7 72.4 90 72.1C91.4 70.7 92.8 69.3 94.2 67.8C97 64.9 99.6 62 102.2 59C104.3 56.6 108 56.3 110.4 58.4C112.8 60.2 113.2 63.6 111.5 66Z" fill="#E1927A"/>
<path d="M173.2 110.6C180.435 110.6 186.3 104.735 186.3 97.5C186.3 90.2651 180.435 84.4 173.2 84.4C165.965 84.4 160.1 90.2651 160.1 97.5C160.1 104.735 165.965 110.6 173.2 110.6Z" fill="#BDE5EC"/>
<path d="M169.531 92.9215C171.045 91.8106 171.716 90.152 171.03 89.2168C170.344 88.2817 168.561 88.4241 167.047 89.535C165.532 90.6459 164.861 92.3046 165.547 93.2397C166.234 94.1748 168.017 94.0324 169.531 92.9215Z" fill="white"/>
<path d="M116.9 122.6C127.283 122.6 135.7 114.183 135.7 103.8C135.7 93.417 127.283 85 116.9 85C106.517 85 98.1 93.417 98.1 103.8C98.1 114.183 106.517 122.6 116.9 122.6Z" fill="#BDE5EC"/>
<path d="M111.607 97.2194C113.789 95.6184 114.79 93.2737 113.843 91.9823C112.895 90.6909 110.358 90.9419 108.176 92.5429C105.994 94.1438 104.993 96.4886 105.941 97.78C106.888 99.0714 109.425 98.8204 111.607 97.2194Z" fill="white"/>
<path d="M127 92.8C134.235 92.8 140.1 86.9349 140.1 79.7C140.1 72.4651 134.235 66.6 127 66.6C119.765 66.6 113.9 72.4651 113.9 79.7C113.9 86.9349 119.765 92.8 127 92.8Z" fill="#BDE5EC"/>
<path d="M123.357 75.1947C124.871 74.0838 125.542 72.4252 124.856 71.49C124.17 70.5549 122.386 70.6974 120.872 71.8083C119.358 72.9191 118.687 74.5778 119.373 75.5129C120.059 76.4481 121.843 76.3056 123.357 75.1947Z" fill="white"/>
<path d="M148.9 95.1C159.725 95.1 168.5 86.3248 168.5 75.5C168.5 64.6752 159.725 55.9 148.9 55.9C138.075 55.9 129.3 64.6752 129.3 75.5C129.3 86.3248 138.075 95.1 148.9 95.1Z" fill="#BDE5EC"/>
<path d="M143.453 68.6663C145.724 67 146.744 64.5301 145.731 63.1496C144.718 61.7692 142.056 62.0009 139.785 63.6673C137.514 65.3336 136.494 67.8035 137.507 69.184C138.519 70.5644 141.182 70.3327 143.453 68.6663Z" fill="white"/>
<path d="M140.2 110.3C147.435 110.3 153.3 104.435 153.3 97.2C153.3 89.9651 147.435 84.1 140.2 84.1C132.965 84.1 127.1 89.9651 127.1 97.2C127.1 104.435 132.965 110.3 140.2 110.3Z" fill="#BDE5EC"/>
<path d="M136.522 92.6079C138.036 91.497 138.707 89.8384 138.021 88.9032C137.335 87.9681 135.551 88.1106 134.037 89.2215C132.523 90.3323 131.852 91.991 132.538 92.9261C133.224 93.8613 135.008 93.7188 136.522 92.6079Z" fill="white"/>
<path d="M172 93.8C179.235 93.8 185.1 87.9349 185.1 80.7C185.1 73.4651 179.235 67.6 172 67.6C164.765 67.6 158.9 73.4651 158.9 80.7C158.9 87.9349 164.765 93.8 172 93.8Z" fill="#BDE5EC"/>
<path d="M168.341 76.1806C169.855 75.0697 170.526 73.4111 169.84 72.4759C169.154 71.5408 167.37 71.6833 165.856 72.7942C164.342 73.905 163.671 75.5637 164.357 76.4988C165.043 77.434 166.827 77.2915 168.341 76.1806Z" fill="white"/>
<path d="M173.3 98.7L172.8 99.6L172.4 100.3C172.1 100.8 171.8 101.2 171.5 101.6C170.9 102.5 170.3 103.3 169.6 104.1C169 104.9 168.3 105.7 167.6 106.5C166.9 107.3 166.3 108.1 165.6 108.8C162.8 111.8 159.8 114.6 156.6 117.1C155.8 117.7 155 118.3 154.2 118.9C153.4 119.5 152.6 120.1 151.7 120.7L149.2 122.4L146.6 124C144.9 125.1 143 126 141.3 126.9C139.5 127.8 137.6 128.6 135.8 129.5C132 131.3 127.5 129.6 125.7 125.8C123.9 122 125.6 117.5 129.4 115.7C129.6 115.6 129.8 115.5 129.9 115.5L130.4 115.3C132 114.7 133.6 114.2 135.2 113.5C136.8 112.8 138.4 112.2 139.9 111.4L142.2 110.3L144.5 109.1C145.3 108.7 146 108.3 146.7 107.8C147.4 107.3 148.2 106.9 148.9 106.4C151.8 104.5 154.5 102.4 157 100.1C157.6 99.5 158.3 98.9 158.9 98.3C159.5 97.7 160.1 97.1 160.7 96.5C161.3 95.9 161.8 95.3 162.3 94.6C162.6 94.3 162.8 94 163 93.7L163.6 92.9L164 92.3C165.9 89.8 169.4 89.3 171.9 91.2C174.1 93.1 174.7 96.3 173.3 98.7Z" fill="#FFC298"/>
<path d="M177.9 114.1C177.4 114.6 177.1 114.9 176.7 115.2L175.6 116.2C174.9 116.9 174.2 117.5 173.4 118.1C172 119.4 170.5 120.6 169 121.8C166.1 124.2 163 126.4 160 128.6C156.9 130.8 153.8 132.8 150.7 134.8C149.1 135.8 147.5 136.8 145.9 137.7L141.1 140.5C137.5 142.6 132.8 141.4 130.7 137.8C128.6 134.2 129.8 129.5 133.4 127.4C133.6 127.3 133.8 127.2 134 127.1L134.1 127L138.9 124.7C140.5 123.9 142.1 123.1 143.6 122.3C146.7 120.7 149.8 119 152.8 117.2C155.8 115.4 158.8 113.6 161.7 111.7C163.1 110.7 164.6 109.8 166 108.7C166.7 108.2 167.4 107.7 168 107.2L169 106.4L170 106L170.3 105.7C172.7 103.7 176.3 104.1 178.3 106.5C180.1 108.8 179.9 112 177.9 114.1Z" fill="#FFC298"/>
<path d="M174.5 133.3C171.2 134.2 167.7 135.2 164.2 136.2C160.8 137.2 157.3 138.3 153.9 139.4C147.1 141.6 140.2 143.8 133.4 146.2C130.4 147.2 127.2 145.7 126.2 142.7C125.2 139.7 126.7 136.5 129.7 135.5C129.8 135.5 129.9 135.4 130.1 135.4C137.1 133.5 144.2 131.6 151.2 129.9C154.7 129 158.3 128.2 161.8 127.4C165.4 126.6 168.9 125.8 172.6 125.1C174.9 124.7 177.1 126.2 177.6 128.5C178.1 130.5 176.7 132.7 174.5 133.3Z" fill="#FFC298"/>
<path d="M171.2 91.8L170.6 92.6L170.1 93.3C169.7 93.7 169.4 94.1 169 94.5C168.3 95.3 167.6 96.1 166.9 96.8C166.2 97.5 165.4 98.3 164.7 98.9C163.9 99.6 163.2 100.3 162.4 100.9C159.3 103.5 155.9 105.9 152.5 108C151.6 108.5 150.7 109 149.9 109.5C149 110 148.1 110.5 147.2 110.9L144.5 112.3L141.7 113.5C139.9 114.4 137.9 115 136 115.8C134.1 116.5 132.1 117.1 130.2 117.7C126.2 119 121.9 116.8 120.6 112.8C119.3 108.8 121.5 104.5 125.5 103.2C125.7 103.1 125.9 103.1 126.1 103L126.6 102.9C128.3 102.5 130 102.2 131.6 101.7C133.2 101.2 134.9 100.8 136.5 100.2L138.9 99.4L141.3 98.4C142.1 98.1 142.9 97.8 143.7 97.4C144.5 97 145.3 96.7 146 96.3C149.1 94.8 152 93 154.8 91C155.5 90.5 156.2 90 156.9 89.5C157.6 89 158.2 88.4 158.9 87.9C159.5 87.4 160.2 86.8 160.8 86.2C161.1 85.9 161.4 85.6 161.7 85.4L162.4 84.7L162.9 84.2C165.1 82 168.7 81.9 170.9 84.1C172.8 86.4 173 89.6 171.2 91.8Z" fill="#FFC298"/>
<path d="M124.6 80.2L119.4 92.6L116.8 98.8L116.5 99.6C116.4 99.7 116.4 99.9 116.4 100C116.4 100.1 116.3 100.3 116.3 100.3C116.4 100.4 116.5 100.4 116.7 100.5C116.8 100.5 117 100.5 117.1 100.5C117.1 100.4 117.1 100.6 117.2 100.7L117.3 101.1L117.4 101.8C118 106 118.7 110.5 119.4 114.9L120.5 121.5L121.1 124.8L121.4 126.4C121.4 126.7 121.5 126.9 121.5 127.2L121.6 127.6C121.6 127.6 121.6 127.6 121.6 127.5V127.3V127C121.7 135.7 114.8 142.8 106.2 143C97.6 143.2 90.4 136.2 90.2 127.6L90.3 126.9V126.5V126.3V126.2L90.4 125.7L90.6 124.8L91.1 123.1L92 119.8L93.9 113.2C95.2 108.8 96.5 104.4 97.9 99.8L98.2 98.9L98.3 98.4C98.4 98.2 98.4 98.2 98.5 97.8C98.8 96.7 99.2 95.6 99.6 94.6C100.1 93.6 100.6 92.6 101.3 91.7C101.5 91.4 101.6 91.4 101.7 91.3C101.8 91.2 101.9 91.1 102 91L102.5 90.3L106.6 85.1C109.3 81.6 112 78.1 114.7 74.6L114.8 74.4C116.7 71.9 120.3 71.4 122.8 73.3C124.9 75 125.6 77.8 124.6 80.2Z" fill="#FFC298"/>
<path d="M118.3 95.1C117.2 99.9 119.8 104.7 130.1 102.2C140.3 99.7 144 141.4 133 146C122 150.5 100.2 160.5 91.5 137C83.2 114.4 118.3 95.1 118.3 95.1Z" fill="#FFC298"/>
<path d="M143.9 112C143.9 112 147.4 111.5 151.2 108.7" stroke="#E1927A" stroke-width="2.8371" stroke-miterlimit="10" stroke-linecap="round"/>
<path d="M171.4 91.6C171.4 91.6 165.2 99.6 156.4 105.1" stroke="#E1927A" stroke-width="2.8371" stroke-miterlimit="10" stroke-linecap="round"/>
<path d="M149.4 122.6C149.6 122.4 163.6 113.3 168.2 106" stroke="#E1927A" stroke-width="2.8371" stroke-miterlimit="10" stroke-linecap="round"/>
<path d="M150.2 133.1C150.6 132.9 159.8 129.2 165.4 124.8" stroke="#E1927A" stroke-width="2.8371" stroke-miterlimit="10" stroke-linecap="round"/>
<path d="M175.4 47.6C172.4 50.6 167.5 50.6 164.5 47.6C162.1 45.2 161.6 41.5 163.2 38.5L170 26L176.7 38.5C178.4 41.5 177.8 45.2 175.4 47.6Z" fill="#2652E4"/>
<path d="M154.2 48.7C151.9 51 148.1 51 145.7 48.7C143.8 46.8 143.4 43.9 144.7 41.6L150 31.9L155.3 41.6C156.5 44 156.1 46.9 154.2 48.7Z" fill="#2652E4"/>
</g>
<path d="M305 112.35C301.64 113.28 294.42 115.1 288.56 116.56C285.881 117.231 283.421 118.583 281.42 120.486C279.419 122.39 277.944 124.778 277.14 127.42L269.68 152H365.77L359.11 127.39C358.387 124.743 356.996 122.326 355.07 120.371C353.143 118.417 350.747 116.991 348.11 116.23L332.79 111.77L305 112.35Z" fill="#2652E4"/>
<path d="M306.91 97.48L305 112.35C305 112.35 322.14 129.53 332.81 111.77C327.59 97.48 331.81 88.77 331.81 88.77L331.08 80.27L316 82L306.91 97.48Z" fill="#AA4628"/>
<path d="M326.78 85.91C326.78 85.51 331.22 82.91 331.28 82.53L331.09 80.29L316 82L306.91 97.48L305.55 107.92C309.85 108.23 315.32 105.92 317.36 104.92C324 101.64 326.18 95.52 326.78 85.91Z" fill="#892E1D"/>
<path d="M297 98C304 105.34 314.19 102.15 317.72 100.06C322.85 97.06 331.05 90.14 332.79 80.29C334.53 70.44 334.53 62.14 327.57 52.87C320.61 43.6 293.76 45.51 292.81 47.07C285.69 58.81 290.05 90.66 297 98Z" fill="#AA4628"/>
<path d="M347 66C347 64.9182 346.649 63.8655 346 63C346.752 62.0171 347.109 60.7881 346.999 59.5553C346.89 58.3226 346.323 57.1754 345.41 56.34C345.799 55.6217 346.002 54.8171 346 54C345.998 53.1563 345.782 52.3269 345.373 51.589C344.964 50.8512 344.374 50.2289 343.66 49.78C343.92 49.0936 344.025 48.3585 343.969 47.6268C343.912 46.8951 343.696 46.1847 343.334 45.5462C342.972 44.9077 342.474 44.3566 341.876 43.9321C341.277 43.5076 340.592 43.2201 339.87 43.09C339.954 42.7326 339.997 42.367 340 42C340 40.6739 339.473 39.4022 338.536 38.4645C337.598 37.5268 336.326 37 335 37C334.664 37.0032 334.33 37.0367 334 37.1C334 37.1 334 37.04 334 37C333.995 36.0387 333.712 35.0995 333.186 34.2946C332.661 33.4898 331.914 32.8535 331.036 32.462C330.158 32.0705 329.186 31.9404 328.236 32.0873C327.286 32.2341 326.399 32.6517 325.68 33.29C325.37 32.4476 324.839 31.7042 324.143 31.1378C323.446 30.5713 322.61 30.2028 321.723 30.0709C320.835 29.9389 319.928 30.0484 319.097 30.3878C318.266 30.7273 317.542 31.2842 317 32C316.492 31.3252 315.821 30.7901 315.05 30.4447C314.279 30.0993 313.434 29.9548 312.592 30.0247C311.75 30.0946 310.94 30.3766 310.236 30.8445C309.533 31.3123 308.96 31.9507 308.57 32.7C307.81 32.2448 306.944 31.9996 306.058 31.9893C305.173 31.979 304.3 32.204 303.53 32.6414C302.76 33.0787 302.12 33.7127 301.676 34.4785C301.231 35.2444 300.998 36.1145 301 37C300.257 36.4429 299.374 36.1036 298.449 36.0202C297.524 35.9368 296.594 36.1126 295.764 36.5279C294.933 36.9431 294.235 37.5815 293.747 38.3713C293.259 39.1612 293 40.0714 293 41C293 41.15 293 41.3 293 41.45C292.374 41.1577 291.691 41.0042 291 41C290 41.0036 289.024 41.307 288.198 41.8711C287.372 42.4352 286.734 43.2341 286.367 44.1644C286 45.0947 285.92 46.1138 286.138 47.0899C286.356 48.066 286.862 48.9543 287.59 49.64C286.668 50.1663 285.937 50.9725 285.503 51.9419C285.07 52.9114 284.956 53.9937 285.179 55.032C285.402 56.0703 285.949 57.0107 286.743 57.7169C287.536 58.4231 288.533 58.8585 289.59 58.96C289.725 58.9837 289.863 58.9971 290 59C295.03 58.9924 300.04 58.3712 304.92 57.15C307.311 56.545 309.844 56.8987 311.977 58.1356C314.111 59.3725 315.677 61.3945 316.34 63.77C318.996 73.4152 324.37 82.0933 331.82 88.77C332.61 88.5599 333.374 88.2648 334.1 87.89C334.396 87.9524 334.697 87.9892 335 88C336.326 88 337.598 87.4732 338.536 86.5355C339.473 85.5979 340 84.3261 340 83C340 83 340 82.93 340 82.9C340.71 82.7547 341.381 82.4567 341.964 82.0265C342.548 81.5964 343.031 81.0445 343.38 80.409C343.729 79.7735 343.936 79.0697 343.986 78.3464C344.036 77.623 343.928 76.8975 343.67 76.22C344.383 75.77 344.97 75.1471 345.377 74.4093C345.784 73.6716 345.999 72.8428 346 72C345.996 71.1812 345.786 70.3765 345.39 69.66C345.896 69.1935 346.3 68.6277 346.577 67.9979C346.854 67.3682 346.998 66.688 347 66Z" fill="#3B0B1B"/>
<path d="M307.28 75.63L320.06 70C320.12 69.9735 320.185 69.9592 320.251 69.958C320.317 69.9567 320.383 69.9685 320.444 69.9927C320.505 70.0168 320.561 70.0529 320.609 70.0988C320.656 70.1447 320.694 70.1994 320.72 70.26C320.769 70.3687 320.777 70.4918 320.742 70.6059C320.707 70.7201 320.632 70.8175 320.53 70.88L308.72 78.37C308.371 78.5888 307.95 78.6601 307.549 78.5682C307.147 78.4763 306.799 78.2288 306.58 77.88C306.361 77.5312 306.29 77.1098 306.382 76.7085C306.474 76.3072 306.721 75.9588 307.07 75.74L307.28 75.63Z" fill="white"/>
<path d="M313 86.81L325.16 78.11C325.265 78.0471 325.389 78.0241 325.509 78.045C325.63 78.0659 325.739 78.1294 325.816 78.224C325.894 78.3185 325.935 78.4378 325.932 78.56C325.929 78.6823 325.882 78.7994 325.8 78.89L315 89.19C314.865 89.3664 314.694 89.5117 314.498 89.6161C314.302 89.7205 314.086 89.7816 313.864 89.7953C313.643 89.809 313.421 89.7749 313.213 89.6953C313.006 89.6157 312.818 89.4926 312.663 89.3341C312.507 89.1757 312.388 88.9857 312.312 88.7769C312.236 88.5682 312.206 88.3457 312.224 88.1244C312.242 87.903 312.307 87.6881 312.415 87.4941C312.523 87.3001 312.671 87.1316 312.85 87L313 86.81Z" fill="white"/>
<path d="M322.57 79.13C322.57 79.13 329.26 81.64 329.57 75.57C330 67 321.4 62.76 319 72.13" fill="#AA4628"/>
<path d="M289 78L309 75L316 88L303.89 102.71L294 99L289 88V78Z" fill="#BDE5EC"/>
<path d="M325.79 76.21C325.59 75.59 325.45 75.02 325.3 74.55C325.148 74.1139 324.957 73.6923 324.73 73.29C324.492 72.8834 324.214 72.5015 323.9 72.15C323.74 71.94 323.52 71.77 323.33 71.54C323.093 71.3234 322.872 71.0894 322.67 70.84V70.79C322.632 70.7431 322.605 70.6891 322.588 70.6312C322.572 70.5733 322.567 70.5128 322.575 70.4531C322.582 70.3935 322.602 70.3359 322.632 70.2838C322.662 70.2318 322.702 70.1863 322.75 70.15C322.813 70.0999 322.89 70.0687 322.97 70.06C323.336 70.02 323.704 70.02 324.07 70.06C324.443 70.1326 324.805 70.2501 325.15 70.41C325.871 70.7579 326.473 71.3111 326.88 72C327.311 72.7041 327.507 73.5271 327.44 74.35C327.4 75.1311 327.089 75.8738 326.56 76.45C326.52 76.4917 326.472 76.525 326.418 76.5476C326.365 76.5703 326.308 76.582 326.25 76.582C326.192 76.582 326.135 76.5703 326.082 76.5476C326.028 76.525 325.98 76.4917 325.94 76.45C325.882 76.3998 325.84 76.3337 325.82 76.26L325.79 76.21Z" fill="#892E1D"/>
<path opacity="0.4" d="M289 88L303 82.15L290.36 91L289 88Z" fill="white"/>
<path opacity="0.4" d="M294 99L305.31 87.78L297.34 100.25L294 99Z" fill="white"/>
<path d="M156.5 229.47C164.1 229.47 179.88 218.47 179.88 218.47L193 247C193 247 173.55 263.48 168.34 267.26C163.13 271.04 132.44 291.38 121.69 292.57C116.37 276.49 127.69 240.57 127.69 240.57C127.69 240.57 140.66 229.47 156.5 229.47Z" fill="#FFC298"/>
<path d="M79.78 218.46C79.78 218.46 86.86 224.15 92.06 227.7C97.26 231.25 97.17 230.65 109.22 231.12C116.362 231.384 123.475 232.177 130.5 233.49C130.5 233.49 136.93 245.49 146.34 248.42C156.5 251.59 170.34 259.32 172.6 261.59C175.32 264.28 169.74 270.84 163.83 269.66C165.96 271.31 162.65 276.99 157.21 277.34C158.21 280.77 149.65 283.6 146.34 283.6C143.74 286.68 138.07 288.6 131.08 287.86C125.56 287.28 105.68 288.86 93.62 274.74C84.9837 264.942 75.7601 255.679 66 247L79.78 218.46Z" fill="#AA4628"/>
<path d="M108.56 244.21C112.1 241.95 115.623 239.67 119.13 237.37L124.41 233.94L127.05 232.22L127.77 231.76C128.19 231.49 128.63 231.26 129.07 231.03C129.965 230.565 130.903 230.187 131.87 229.9C132.848 229.614 133.854 229.433 134.87 229.36H135.26H135.47L135.86 229.31L136.65 229.2L139.82 228.75C141.93 228.44 144.04 228.16 146.14 227.96C150.35 227.59 154.56 227.35 158.72 228.34C160.808 228.808 162.665 229.993 163.971 231.687C165.277 233.382 165.948 235.481 165.868 237.619C165.789 239.757 164.963 241.799 163.535 243.392C162.107 244.985 160.167 246.028 158.05 246.34C153.83 247.01 149.65 246.47 145.48 245.78C143.4 245.43 141.32 244.99 139.24 244.53L136.11 243.85L135.33 243.68L135 243.51H134.82C134.806 243.426 134.772 243.347 134.72 243.28C134.672 243.211 134.607 243.155 134.53 243.12H134.43L134.32 243.18L134.15 243.27L133.8 243.46L131 244.9L125.48 247.9C121.8 249.9 118.133 251.937 114.48 254.01C113.176 254.764 111.629 254.975 110.171 254.598C108.713 254.221 107.462 253.287 106.686 251.996C105.911 250.705 105.674 249.161 106.026 247.698C106.379 246.234 107.292 244.967 108.57 244.17L108.56 244.21Z" fill="#FFC298"/>
<path d="M103.86 266.85C103.303 271.377 103.468 275.965 104.35 280.44C104.578 281.534 104.362 282.674 103.75 283.609C103.138 284.544 102.179 285.197 101.085 285.425C99.991 285.653 98.8512 285.437 97.9163 284.825C96.9814 284.213 96.3281 283.254 96.1 282.16C96.0662 281.988 96.0428 281.815 96.03 281.64V281.56C95.6678 276.231 96.1504 270.878 97.46 265.7C97.6667 264.907 98.1644 264.221 98.854 263.779C99.5436 263.336 100.374 263.17 101.181 263.312C101.988 263.455 102.712 263.896 103.208 264.548C103.705 265.199 103.937 266.014 103.86 266.83V266.85Z" fill="#FFC298"/>
<path d="M110.76 266.18C110.642 271.908 111.014 277.635 111.87 283.3C111.965 283.888 111.942 284.488 111.805 285.067C111.667 285.646 111.417 286.193 111.068 286.675C110.72 287.158 110.279 287.567 109.773 287.879C109.266 288.191 108.703 288.4 108.115 288.495C107.527 288.59 106.927 288.567 106.348 288.43C105.769 288.292 105.222 288.042 104.74 287.693C104.257 287.345 103.848 286.904 103.536 286.398C103.224 285.891 103.015 285.328 102.92 284.74C102.871 284.486 102.851 284.228 102.86 283.97V283.9C102.999 277.744 103.668 271.611 104.86 265.57C105.065 264.909 105.492 264.34 106.069 263.958C106.646 263.576 107.338 263.405 108.026 263.475C108.714 263.544 109.358 263.85 109.847 264.339C110.336 264.828 110.641 265.472 110.71 266.16L110.76 266.18Z" fill="#FFC298"/>
<path d="M118.17 269C117.706 274.606 117.928 280.248 118.83 285.8C118.95 286.395 118.95 287.009 118.828 287.604C118.706 288.199 118.466 288.764 118.122 289.264C117.778 289.765 117.336 290.191 116.824 290.517C116.312 290.844 115.739 291.064 115.14 291.164C114.541 291.265 113.928 291.244 113.337 291.103C112.746 290.962 112.19 290.703 111.701 290.343C111.212 289.982 110.801 289.527 110.491 289.004C110.182 288.482 109.981 287.902 109.9 287.3C109.87 287.121 109.85 286.941 109.84 286.76V286.69C109.61 280.418 110.151 274.141 111.45 268C111.615 267.139 112.107 266.375 112.823 265.868C113.538 265.36 114.422 265.149 115.289 265.278C116.157 265.407 116.941 265.867 117.478 266.56C118.014 267.254 118.263 268.128 118.17 269Z" fill="#FFC298"/>
<path d="M123.69 275.54C123.829 279.465 124.386 283.363 125.35 287.17C125.494 287.723 125.527 288.299 125.449 288.864C125.37 289.43 125.18 289.975 124.891 290.468C124.602 290.96 124.219 291.391 123.763 291.735C123.307 292.08 122.788 292.331 122.235 292.475C121.682 292.619 121.106 292.652 120.541 292.574C119.975 292.495 119.43 292.305 118.937 292.016C118.445 291.727 118.014 291.343 117.67 290.888C117.325 290.432 117.074 289.913 116.93 289.36C116.863 289.125 116.819 288.884 116.8 288.64V288.55C116.469 284.108 116.606 279.643 117.21 275.23C117.327 274.431 117.736 273.705 118.358 273.19C118.979 272.676 119.77 272.41 120.576 272.445C121.383 272.48 122.147 272.813 122.723 273.379C123.298 273.945 123.642 274.704 123.69 275.51V275.54Z" fill="#FFC298"/>
<path d="M132.77 241.55C132.77 241.55 134.08 248.09 144.93 251.81C156.63 255.81 163.74 250.62 166.11 246.92C169.77 241.2 162.48 232 162.48 232L132.77 241.55Z" fill="#FFC298"/>
<path d="M104 266.27C103.483 269.549 103.192 272.861 103.13 276.18" stroke="#E1927A" stroke-width="2.5" stroke-miterlimit="10" stroke-linecap="round"/>
<path d="M110.78 267.24C110.276 272.016 110.086 276.819 110.21 281.62" stroke="#E1927A" stroke-width="2.5" stroke-miterlimit="10" stroke-linecap="round"/>
<path d="M118.31 274C117.705 277.025 117.413 280.105 117.44 283.19" stroke="#E1927A" stroke-width="2.5" stroke-miterlimit="10" stroke-linecap="round"/>
<path d="M163.83 269.66C158.02 268.52 151.74 265.88 145.19 262.38" stroke="#892E1D" stroke-width="2.5" stroke-linecap="round" stroke-linejoin="round"/>
<path d="M157.21 277.34C152.05 276.399 147.111 274.5 142.65 271.74" stroke="#892E1D" stroke-width="2.5" stroke-linecap="round" stroke-linejoin="round"/>
<path d="M145.51 283.6C145.51 283.6 140.31 281.25 133.81 277.92" stroke="#892E1D" stroke-width="2.5" stroke-linecap="round" stroke-linejoin="round"/>
<path d="M123.78 173.69L104.31 207.42C103.984 207.985 103.812 208.627 103.812 209.28C103.812 209.932 103.983 210.574 104.31 211.139C104.636 211.705 105.105 212.174 105.671 212.501C106.236 212.828 106.877 213 107.53 213H146.47C147.123 213 147.764 212.828 148.329 212.501C148.895 212.174 149.364 211.705 149.69 211.139C150.017 210.574 150.188 209.932 150.188 209.28C150.188 208.627 150.016 207.985 149.69 207.42L130.22 173.69C129.893 173.125 129.424 172.656 128.859 172.33C128.293 172.004 127.652 171.833 127 171.833C126.348 171.833 125.707 172.004 125.141 172.33C124.576 172.656 124.107 173.125 123.78 173.69Z" fill="#E44450"/>
<path d="M130.5 183.5L128.49 198.36H125.51L123.5 183.5H130.5Z" fill="white"/>
<path d="M127 207.23C128.381 207.23 129.5 206.111 129.5 204.73C129.5 203.349 128.381 202.23 127 202.23C125.619 202.23 124.5 203.349 124.5 204.73C124.5 206.111 125.619 207.23 127 207.23Z" fill="white"/>
<path d="M377 269H253V281H377V269Z" fill="white"/>
<path d="M379 269H253V281H379V269Z" fill="#2652E4"/>
<path d="M352 295C358.075 295 363 290.075 363 284C363 277.925 358.075 273 352 273C345.925 273 341 277.925 341 284C341 290.075 345.925 295 352 295Z" fill="#BDE5EC"/>
<path d="M352 288C354.209 288 356 286.209 356 284C356 281.791 354.209 280 352 280C349.791 280 348 281.791 348 284C348 286.209 349.791 288 352 288Z" fill="white"/>
<path d="M279 295C285.075 295 290 290.075 290 284C290 277.925 285.075 273 279 273C272.925 273 268 277.925 268 284C268 290.075 272.925 295 279 295Z" fill="#BDE5EC"/>
<path d="M279 288C281.209 288 283 286.209 283 284C283 281.791 281.209 280 279 280C276.791 280 275 281.791 275 284C275 286.209 276.791 288 279 288Z" fill="white"/>
<path d="M339.9 207H263.9C259.5 207 256 210.5 256 214.8V269H376V247.4C376 245.6 375.2 243.9 374 242.5L345.7 209.5C344.3 207.7 342.1 207 339.9 207Z" fill="#BDE5EC"/>
<path d="M321 218H261V224H321V218Z" fill="white"/>
<path d="M366 256H261V262H366V256Z" fill="white"/>
<path d="M367 241H344.2C339.1 241 335 236.9 335 231.8V219H346" stroke="white" stroke-width="2" stroke-miterlimit="10" stroke-linecap="round"/>
<path d="M281 240H305" stroke="#E44450" stroke-width="8" stroke-miterlimit="10"/>
<path d="M293 252V228" stroke="#E44450" stroke-width="8" stroke-miterlimit="10"/>
<path d="M310.7 202.4C310.7 197.4 314.5 193.3 319.2 193.3C323.9 193.3 327.7 197.4 327.7 202.4" fill="#E44450"/>
<path d="M329 202H309V207H329V202Z" fill="#ECC6C3"/>
<path d="M318.4 186.2L317.4 180.5L317.1 178.5H321.7L321.4 180.5L320.4 186.2L320.2 187.2H318.6L318.4 186.2Z" fill="#ECC6C3"/>
<path d="M327.3 187.9L330.8 183.1L331.9 181.5L335.1 184.7L333.5 185.9L328.8 189.3L327.9 189.9L326.8 188.7L327.3 187.9Z" fill="#ECC6C3"/>
<path d="M331.7 194.2L336.6 193.3L338.5 192.9V197.4L336.6 197.1L331.7 196.2L330.7 196V194.4L331.7 194.2Z" fill="#ECC6C3"/>
<path d="M301.4 193.3L307.1 194.2L308.1 194.3V196L307.1 196.2L301.4 197.1L299.5 197.4V193L301.4 193.3Z" fill="#ECC6C3"/>
<path d="M311.2 189.3L306.4 185.9L304.8 184.8L308.1 181.4L309.3 183.1L312.6 187.9L313.2 188.7L312.1 189.9L311.2 189.3Z" fill="#ECC6C3"/>
<path d="M330 218H326V270H330V218Z" fill="#2652E4"/>
<path d="M376 250H371V264H376" fill="#E44450"/>
<defs>
<clipPath id="clip0">
<rect x="65" y="24" width="128" height="128" fill="white"/>
</clipPath>
</defs>
</svg>
