<svg width="227" height="48" viewBox="0 0 227 48" fill="none" xmlns="http://www.w3.org/2000/svg">
<path d="M13.872 20.432C13.872 21.328 13.656 22.168 13.224 22.952C12.808 23.736 12.144 24.368 11.232 24.848C10.336 25.328 9.2 25.568 7.824 25.568H5.016V32H1.656V15.248H7.824C9.12 15.248 10.224 15.472 11.136 15.92C12.048 16.368 12.728 16.984 13.176 17.768C13.64 18.552 13.872 19.44 13.872 20.432ZM7.68 22.856C8.608 22.856 9.296 22.648 9.744 22.232C10.192 21.8 10.416 21.2 10.416 20.432C10.416 18.8 9.504 17.984 7.68 17.984H5.016V22.856H7.68ZM22.1616 32.216C20.8816 32.216 19.7296 31.936 18.7056 31.376C17.6816 30.8 16.8736 29.992 16.2816 28.952C15.7056 27.912 15.4176 26.712 15.4176 25.352C15.4176 23.992 15.7136 22.792 16.3056 21.752C16.9136 20.712 17.7376 19.912 18.7776 19.352C19.8176 18.776 20.9776 18.488 22.2576 18.488C23.5376 18.488 24.6976 18.776 25.7376 19.352C26.7776 19.912 27.5936 20.712 28.1856 21.752C28.7936 22.792 29.0976 23.992 29.0976 25.352C29.0976 26.712 28.7856 27.912 28.1616 28.952C27.5536 29.992 26.7216 30.8 25.6656 31.376C24.6256 31.936 23.4576 32.216 22.1616 32.216ZM22.1616 29.288C22.7696 29.288 23.3376 29.144 23.8656 28.856C24.4096 28.552 24.8416 28.104 25.1616 27.512C25.4816 26.92 25.6416 26.2 25.6416 25.352C25.6416 24.088 25.3056 23.12 24.6336 22.448C23.9776 21.76 23.1696 21.416 22.2096 21.416C21.2496 21.416 20.4416 21.76 19.7856 22.448C19.1456 23.12 18.8256 24.088 18.8256 25.352C18.8256 26.616 19.1376 27.592 19.7616 28.28C20.4016 28.952 21.2016 29.288 22.1616 29.288ZM34.9223 20.768C35.3543 20.064 35.9143 19.512 36.6023 19.112C37.3063 18.712 38.1063 18.512 39.0023 18.512V22.04H38.1143C37.0583 22.04 36.2583 22.288 35.7143 22.784C35.1863 23.28 34.9223 24.144 34.9223 25.376V32H31.5623V18.704H34.9223V20.768ZM47.1694 32.216C45.8894 32.216 44.7374 31.936 43.7134 31.376C42.6894 30.8 41.8814 29.992 41.2894 28.952C40.7134 27.912 40.4254 26.712 40.4254 25.352C40.4254 23.992 40.7214 22.792 41.3134 21.752C41.9214 20.712 42.7454 19.912 43.7854 19.352C44.8254 18.776 45.9854 18.488 47.2654 18.488C48.5454 18.488 49.7054 18.776 50.7454 19.352C51.7854 19.912 52.6014 20.712 53.1934 21.752C53.8014 22.792 54.1054 23.992 54.1054 25.352C54.1054 26.712 53.7934 27.912 53.1694 28.952C52.5614 29.992 51.7294 30.8 50.6734 31.376C49.6334 31.936 48.4654 32.216 47.1694 32.216ZM47.1694 29.288C47.7774 29.288 48.3454 29.144 48.8734 28.856C49.4174 28.552 49.8494 28.104 50.1694 27.512C50.4894 26.92 50.6494 26.2 50.6494 25.352C50.6494 24.088 50.3134 23.12 49.6414 22.448C48.9854 21.76 48.1774 21.416 47.2174 21.416C46.2574 21.416 45.4494 21.76 44.7934 22.448C44.1534 23.12 43.8334 24.088 43.8334 25.352C43.8334 26.616 44.1454 27.592 44.7694 28.28C45.4094 28.952 46.2094 29.288 47.1694 29.288ZM55.7061 25.328C55.7061 24 55.9781 22.824 56.5221 21.8C57.0821 20.76 57.8341 19.952 58.7781 19.376C59.7221 18.8 60.7621 18.512 61.8981 18.512C62.8421 18.512 63.6741 18.696 64.3941 19.064C65.1301 19.416 65.7221 19.872 66.1701 20.432V18.704H69.5541V38.336H66.1701V30.176C65.7221 30.752 65.1221 31.232 64.3701 31.616C63.6181 32 62.7701 32.192 61.8261 32.192C60.7061 32.192 59.6741 31.904 58.7301 31.328C57.8021 30.736 57.0661 29.92 56.5221 28.88C55.9781 27.84 55.7061 26.656 55.7061 25.328ZM66.1701 25.352C66.1701 24.536 66.0021 23.832 65.6661 23.24C65.3301 22.648 64.8901 22.2 64.3461 21.896C63.8181 21.592 63.2501 21.44 62.6421 21.44C62.0501 21.44 61.4821 21.592 60.9381 21.896C60.4101 22.2 59.9781 22.648 59.6421 23.24C59.3061 23.816 59.1381 24.512 59.1381 25.328C59.1381 26.144 59.3061 26.856 59.6421 27.464C59.9781 28.056 60.4101 28.504 60.9381 28.808C61.4821 29.112 62.0501 29.264 62.6421 29.264C63.2501 29.264 63.8181 29.112 64.3461 28.808C64.8901 28.504 65.3301 28.056 65.6661 27.464C66.0021 26.872 66.1701 26.168 66.1701 25.352Z" fill="#333333"/>
<path d="M136.84 23.6C136.84 21.952 137.208 20.48 137.944 19.184C138.696 17.872 139.712 16.856 140.992 16.136C142.288 15.4 143.736 15.032 145.336 15.032C147.208 15.032 148.848 15.512 150.256 16.472C151.664 17.432 152.648 18.76 153.208 20.456H149.344C148.96 19.656 148.416 19.056 147.712 18.656C147.024 18.256 146.224 18.056 145.312 18.056C144.336 18.056 143.464 18.288 142.696 18.752C141.944 19.2 141.352 19.84 140.92 20.672C140.504 21.504 140.296 22.48 140.296 23.6C140.296 24.704 140.504 25.68 140.92 26.528C141.352 27.36 141.944 28.008 142.696 28.472C143.464 28.92 144.336 29.144 145.312 29.144C146.224 29.144 147.024 28.944 147.712 28.544C148.416 28.128 148.96 27.52 149.344 26.72H153.208C152.648 28.432 151.664 29.768 150.256 30.728C148.864 31.672 147.224 32.144 145.336 32.144C143.736 32.144 142.288 31.784 140.992 31.064C139.712 30.328 138.696 29.312 137.944 28.016C137.208 26.72 136.84 25.248 136.84 23.6ZM161.982 32.216C160.702 32.216 159.55 31.936 158.526 31.376C157.502 30.8 156.694 29.992 156.102 28.952C155.526 27.912 155.238 26.712 155.238 25.352C155.238 23.992 155.534 22.792 156.126 21.752C156.734 20.712 157.558 19.912 158.598 19.352C159.638 18.776 160.798 18.488 162.078 18.488C163.358 18.488 164.518 18.776 165.558 19.352C166.598 19.912 167.414 20.712 168.006 21.752C168.614 22.792 168.918 23.992 168.918 25.352C168.918 26.712 168.606 27.912 167.982 28.952C167.374 29.992 166.542 30.8 165.486 31.376C164.446 31.936 163.278 32.216 161.982 32.216ZM161.982 29.288C162.59 29.288 163.158 29.144 163.686 28.856C164.23 28.552 164.662 28.104 164.982 27.512C165.302 26.92 165.462 26.2 165.462 25.352C165.462 24.088 165.126 23.12 164.454 22.448C163.798 21.76 162.99 21.416 162.03 21.416C161.07 21.416 160.262 21.76 159.606 22.448C158.966 23.12 158.646 24.088 158.646 25.352C158.646 26.616 158.958 27.592 159.582 28.28C160.222 28.952 161.022 29.288 161.982 29.288ZM174.743 20.768C175.175 20.064 175.735 19.512 176.423 19.112C177.127 18.712 177.927 18.512 178.823 18.512V22.04H177.935C176.879 22.04 176.079 22.288 175.535 22.784C175.007 23.28 174.743 24.144 174.743 25.376V32H171.383V18.704H174.743V20.768ZM186.99 32.216C185.71 32.216 184.558 31.936 183.534 31.376C182.51 30.8 181.702 29.992 181.11 28.952C180.534 27.912 180.246 26.712 180.246 25.352C180.246 23.992 180.542 22.792 181.134 21.752C181.742 20.712 182.566 19.912 183.606 19.352C184.646 18.776 185.806 18.488 187.086 18.488C188.366 18.488 189.526 18.776 190.566 19.352C191.606 19.912 192.422 20.712 193.014 21.752C193.622 22.792 193.926 23.992 193.926 25.352C193.926 26.712 193.614 27.912 192.99 28.952C192.382 29.992 191.55 30.8 190.494 31.376C189.454 31.936 188.286 32.216 186.99 32.216ZM186.99 29.288C187.598 29.288 188.166 29.144 188.694 28.856C189.238 28.552 189.67 28.104 189.99 27.512C190.31 26.92 190.47 26.2 190.47 25.352C190.47 24.088 190.134 23.12 189.462 22.448C188.806 21.76 187.998 21.416 187.038 21.416C186.078 21.416 185.27 21.76 184.614 22.448C183.974 23.12 183.654 24.088 183.654 25.352C183.654 26.616 183.966 27.592 184.59 28.28C185.23 28.952 186.03 29.288 186.99 29.288ZM203.758 18.512C205.342 18.512 206.622 19.016 207.598 20.024C208.574 21.016 209.062 22.408 209.062 24.2V32H205.702V24.656C205.702 23.6 205.438 22.792 204.91 22.232C204.382 21.656 203.662 21.368 202.75 21.368C201.822 21.368 201.086 21.656 200.542 22.232C200.014 22.792 199.75 23.6 199.75 24.656V32H196.39V18.704H199.75V20.36C200.198 19.784 200.766 19.336 201.454 19.016C202.158 18.68 202.926 18.512 203.758 18.512ZM211.394 25.304C211.394 23.96 211.658 22.768 212.186 21.728C212.73 20.688 213.458 19.888 214.37 19.328C215.298 18.768 216.33 18.488 217.466 18.488C218.458 18.488 219.322 18.688 220.058 19.088C220.81 19.488 221.41 19.992 221.858 20.6V18.704H225.242V32H221.858V30.056C221.426 30.68 220.826 31.2 220.058 31.616C219.306 32.016 218.434 32.216 217.442 32.216C216.322 32.216 215.298 31.928 214.37 31.352C213.458 30.776 212.73 29.968 212.186 28.928C211.658 27.872 211.394 26.664 211.394 25.304ZM221.858 25.352C221.858 24.536 221.698 23.84 221.378 23.264C221.058 22.672 220.626 22.224 220.082 21.92C219.538 21.6 218.954 21.44 218.33 21.44C217.706 21.44 217.13 21.592 216.602 21.896C216.074 22.2 215.642 22.648 215.306 23.24C214.986 23.816 214.826 24.504 214.826 25.304C214.826 26.104 214.986 26.808 215.306 27.416C215.642 28.008 216.074 28.464 216.602 28.784C217.146 29.104 217.722 29.264 218.33 29.264C218.954 29.264 219.538 29.112 220.082 28.808C220.626 28.488 221.058 28.04 221.378 27.464C221.698 26.872 221.858 26.168 221.858 25.352Z" fill="#333333"/>
<path fill-rule="evenodd" clip-rule="evenodd" d="M101 2.66666C101 1.19391 102.194 0 103.667 0C105.139 0 106.333 1.19391 106.333 2.66666V7.82643C108.808 8.18001 111.215 9.1135 113.336 10.6269C113.384 10.5714 113.433 10.5173 113.486 10.4648L117.257 6.69361C118.298 5.65221 119.987 5.65221 121.028 6.69361C122.07 7.73501 122.07 9.42344 121.028 10.4648L117.257 14.2361C117.205 14.2885 117.151 14.3383 117.095 14.3854C118.598 16.4909 119.528 18.8787 119.888 21.334H125C126.473 21.334 127.667 22.5279 127.667 24.0007C127.667 25.4734 126.473 26.6673 125 26.6673H119.775C119.353 28.885 118.46 31.0306 117.096 32.9434C117.151 32.9904 117.205 33.0399 117.257 33.0921L121.028 36.8634C122.07 37.9048 122.07 39.5932 121.028 40.6346C119.987 41.676 118.298 41.676 117.257 40.6346L113.486 36.8634C113.442 36.8199 113.401 36.7753 113.361 36.7297C111.339 38.2716 108.939 39.3428 106.324 39.78C106.33 39.8525 106.333 39.9259 106.333 40V45.3333C106.333 46.8061 105.139 48 103.667 48C102.194 48 101 46.8061 101 45.3333L101 40C101 39.9259 101.003 39.8525 101.009 39.7799C98.5881 39.3752 96.3513 38.4268 94.4284 37.0646L90.8583 40.6348C89.8169 41.6762 88.1284 41.6762 87.087 40.6348C86.0456 39.5934 86.0456 37.9049 87.087 36.8635L90.6479 33.3027C89.2629 31.3679 88.2985 29.1116 87.8882 26.6673H83.6667C82.1939 26.6673 81 25.4734 81 24.0007C81 22.5279 82.1939 21.334 83.6667 21.334H87.8879C88.3255 18.7248 89.3945 16.3298 90.9325 14.3113L88.0298 11.4086C86.9884 10.3672 86.9884 8.67873 88.0298 7.63733C89.0712 6.59594 90.7596 6.59593 91.801 7.63733L94.7857 10.6221C96.6809 9.27136 98.8045 8.38334 101 7.958V2.66666ZM99.0002 20.666C100.473 20.666 101.667 19.4721 101.667 17.9993C101.667 16.5266 100.473 15.3327 99.0002 15.3327C97.5275 15.3327 96.3336 16.5266 96.3336 17.9993C96.3336 19.4721 97.5275 20.666 99.0002 20.666ZM112.333 17.9993C112.333 19.4721 111.139 20.666 109.667 20.666C108.194 20.666 107 19.4721 107 17.9993C107 16.5266 108.194 15.3327 109.667 15.3327C111.139 15.3327 112.333 16.5266 112.333 17.9993ZM98.6765 29.6565C97.1762 28.1562 96.3334 26.1214 96.3334 23.9997H104.333H112.333C112.333 26.1214 111.49 28.1562 109.99 29.6565C108.49 31.1568 106.455 31.9997 104.333 31.9997C102.212 31.9997 100.177 31.1568 98.6765 29.6565Z" fill="#BB6BD9"/>
</svg>
