<svg width="48" height="48" viewBox="0 0 48 48" fill="none" xmlns="http://www.w3.org/2000/svg">
<mask id="path-2-inside-1" fill="white">
<path fill-rule="evenodd" clip-rule="evenodd" d="M20.9999 2.66666C20.9999 1.19391 22.1938 0 23.6666 0C25.1393 0 26.3332 1.19391 26.3332 2.66666V7.82643C28.8078 8.18001 31.2153 9.1135 33.3365 10.6269C33.3836 10.5714 33.4334 10.5173 33.4858 10.4648L37.2571 6.69361C38.2985 5.65221 39.9869 5.65221 41.0283 6.69361C42.0697 7.73501 42.0697 9.42344 41.0283 10.4648L37.2571 14.2361C37.2047 14.2885 37.1506 14.3383 37.0951 14.3854C38.5975 16.4909 39.5285 18.8787 39.888 21.334H45C46.4728 21.334 47.6667 22.5279 47.6667 24.0007C47.6667 25.4734 46.4728 26.6673 45 26.6673H39.775C39.3535 28.885 38.4603 31.0306 37.0956 32.9434C37.1509 32.9904 37.2047 33.0399 37.257 33.0921L41.0282 36.8634C42.0696 37.9048 42.0696 39.5932 41.0282 40.6346C39.9868 41.676 38.2983 41.676 37.257 40.6346L33.4857 36.8634C33.4423 36.8199 33.4006 36.7753 33.3608 36.7297C31.3391 38.2716 28.9391 39.3428 26.3244 39.78C26.3303 39.8525 26.3333 39.9259 26.3333 40V45.3333C26.3333 46.8061 25.1394 48 23.6667 48C22.1939 48 21 46.8061 21 45.3333L21 40C21 39.9259 21.003 39.8525 21.009 39.7799C18.5881 39.3752 16.3513 38.4268 14.4284 37.0646L10.8583 40.6348C9.81687 41.6762 8.12843 41.6762 7.08704 40.6348C6.04564 39.5934 6.04564 37.9049 7.08704 36.8635L10.6479 33.3027C9.26289 31.3679 8.29845 29.1116 7.88822 26.6673H3.66666C2.19391 26.6673 1 25.4734 1 24.0007C1 22.5279 2.19391 21.334 3.66666 21.334H7.88789C8.32545 18.7248 9.3945 16.3298 10.9325 14.3113L8.02977 11.4086C6.98838 10.3672 6.98838 8.67873 8.02977 7.63733C9.07117 6.59594 10.7596 6.59593 11.801 7.63733L14.7857 10.6221C16.6809 9.27136 18.8045 8.38334 20.9999 7.958V2.66666ZM19.0002 20.666C20.473 20.666 21.6669 19.4721 21.6669 17.9993C21.6669 16.5266 20.473 15.3327 19.0002 15.3327C17.5275 15.3327 16.3336 16.5266 16.3336 17.9993C16.3336 19.4721 17.5275 20.666 19.0002 20.666ZM32.3332 17.9993C32.3332 19.4721 31.1393 20.666 29.6666 20.666C28.1938 20.666 26.9999 19.4721 26.9999 17.9993C26.9999 16.5266 28.1938 15.3327 29.6666 15.3327C31.1393 15.3327 32.3332 16.5266 32.3332 17.9993ZM18.6765 29.6565C17.1762 28.1562 16.3334 26.1214 16.3334 23.9997H24.3334H32.3334C32.3334 26.1214 31.4905 28.1562 29.9902 29.6565C28.4899 31.1568 26.4551 31.9997 24.3334 31.9997C22.2116 31.9997 20.1768 31.1568 18.6765 29.6565Z"/>
</mask>
<path fill-rule="evenodd" clip-rule="evenodd" d="M20.9999 2.66666C20.9999 1.19391 22.1938 0 23.6666 0C25.1393 0 26.3332 1.19391 26.3332 2.66666V7.82643C28.8078 8.18001 31.2153 9.1135 33.3365 10.6269C33.3836 10.5714 33.4334 10.5173 33.4858 10.4648L37.2571 6.69361C38.2985 5.65221 39.9869 5.65221 41.0283 6.69361C42.0697 7.73501 42.0697 9.42344 41.0283 10.4648L37.2571 14.2361C37.2047 14.2885 37.1506 14.3383 37.0951 14.3854C38.5975 16.4909 39.5285 18.8787 39.888 21.334H45C46.4728 21.334 47.6667 22.5279 47.6667 24.0007C47.6667 25.4734 46.4728 26.6673 45 26.6673H39.775C39.3535 28.885 38.4603 31.0306 37.0956 32.9434C37.1509 32.9904 37.2047 33.0399 37.257 33.0921L41.0282 36.8634C42.0696 37.9048 42.0696 39.5932 41.0282 40.6346C39.9868 41.676 38.2983 41.676 37.257 40.6346L33.4857 36.8634C33.4423 36.8199 33.4006 36.7753 33.3608 36.7297C31.3391 38.2716 28.9391 39.3428 26.3244 39.78C26.3303 39.8525 26.3333 39.9259 26.3333 40V45.3333C26.3333 46.8061 25.1394 48 23.6667 48C22.1939 48 21 46.8061 21 45.3333L21 40C21 39.9259 21.003 39.8525 21.009 39.7799C18.5881 39.3752 16.3513 38.4268 14.4284 37.0646L10.8583 40.6348C9.81687 41.6762 8.12843 41.6762 7.08704 40.6348C6.04564 39.5934 6.04564 37.9049 7.08704 36.8635L10.6479 33.3027C9.26289 31.3679 8.29845 29.1116 7.88822 26.6673H3.66666C2.19391 26.6673 1 25.4734 1 24.0007C1 22.5279 2.19391 21.334 3.66666 21.334H7.88789C8.32545 18.7248 9.3945 16.3298 10.9325 14.3113L8.02977 11.4086C6.98838 10.3672 6.98838 8.67873 8.02977 7.63733C9.07117 6.59594 10.7596 6.59593 11.801 7.63733L14.7857 10.6221C16.6809 9.27136 18.8045 8.38334 20.9999 7.958V2.66666ZM19.0002 20.666C20.473 20.666 21.6669 19.4721 21.6669 17.9993C21.6669 16.5266 20.473 15.3327 19.0002 15.3327C17.5275 15.3327 16.3336 16.5266 16.3336 17.9993C16.3336 19.4721 17.5275 20.666 19.0002 20.666ZM32.3332 17.9993C32.3332 19.4721 31.1393 20.666 29.6666 20.666C28.1938 20.666 26.9999 19.4721 26.9999 17.9993C26.9999 16.5266 28.1938 15.3327 29.6666 15.3327C31.1393 15.3327 32.3332 16.5266 32.3332 17.9993ZM18.6765 29.6565C17.1762 28.1562 16.3334 26.1214 16.3334 23.9997H24.3334H32.3334C32.3334 26.1214 31.4905 28.1562 29.9902 29.6565C28.4899 31.1568 26.4551 31.9997 24.3334 31.9997C22.2116 31.9997 20.1768 31.1568 18.6765 29.6565Z" fill="url(#paint0_linear)"/>
<path d="M26.3332 7.82643H25.3332V8.6937L26.1918 8.81637L26.3332 7.82643ZM33.3365 10.6269L32.7556 11.4409L33.5039 11.9748L34.0988 11.2741L33.3365 10.6269ZM33.4858 10.4648L34.1929 11.172L34.193 11.1719L33.4858 10.4648ZM37.2571 6.69361L36.55 5.9865L36.55 5.9865L37.2571 6.69361ZM41.0283 6.69361L40.3212 7.40072L40.3212 7.40072L41.0283 6.69361ZM41.0283 10.4648L41.7354 11.1719L41.7354 11.1719L41.0283 10.4648ZM37.2571 14.2361L36.55 13.529L36.55 13.529L37.2571 14.2361ZM37.0951 14.3854L36.4479 13.623L35.7472 14.218L36.2811 14.9662L37.0951 14.3854ZM39.888 21.334L38.8986 21.4789L39.0238 22.334H39.888V21.334ZM39.775 26.6673V25.6673H38.9472L38.7926 26.4806L39.775 26.6673ZM37.0956 32.9434L36.2816 32.3626L35.7479 33.1106L36.4482 33.7055L37.0956 32.9434ZM41.0282 36.8634L40.3211 37.5705L40.3211 37.5705L41.0282 36.8634ZM33.3608 36.7297L34.1141 36.072L33.4985 35.367L32.7544 35.9346L33.3608 36.7297ZM26.3244 39.78L26.1595 38.7936L25.2529 38.9452L25.3277 39.8614L26.3244 39.78ZM21 45.3333L22 45.3333L22 45.3333L21 45.3333ZM21 40L20 40L20 40L21 40ZM21.009 39.7799L22.0056 39.8613L22.0805 38.9452L21.1739 38.7936L21.009 39.7799ZM14.4284 37.0646L15.0065 36.2486L14.318 35.7609L13.7213 36.3575L14.4284 37.0646ZM10.8583 40.6348L10.1512 39.9277L10.1512 39.9277L10.8583 40.6348ZM7.08704 40.6348L7.79414 39.9277L7.79414 39.9277L7.08704 40.6348ZM7.08704 36.8635L7.79414 37.5707L7.79414 37.5707L7.08704 36.8635ZM10.6479 33.3027L11.355 34.0098L11.9546 33.4102L11.461 32.7206L10.6479 33.3027ZM7.88822 26.6673L8.87443 26.5018L8.73437 25.6673H7.88822V26.6673ZM7.88789 21.334V22.334H8.73415L8.87411 21.4994L7.88789 21.334ZM10.9325 14.3113L11.7279 14.9174L12.2576 14.2222L11.6396 13.6042L10.9325 14.3113ZM8.02977 11.4086L8.73688 10.7015L8.73688 10.7015L8.02977 11.4086ZM8.02977 7.63733L8.73688 8.34444L8.73688 8.34444L8.02977 7.63733ZM14.7857 10.6221L14.0786 11.3292L14.677 11.9275L15.3661 11.4364L14.7857 10.6221ZM20.9999 7.958L21.1901 8.93974L21.9999 8.78286V7.958H20.9999ZM16.3334 23.9997V22.9997H15.3334V23.9997H16.3334ZM18.6765 29.6565L19.3836 28.9494L19.3836 28.9494L18.6765 29.6565ZM32.3334 23.9997H33.3334V22.9997H32.3334V23.9997ZM29.9902 29.6565L30.6973 30.3636L30.6973 30.3636L29.9902 29.6565ZM23.6666 -1C21.6415 -1 19.9999 0.641621 19.9999 2.66666H21.9999C21.9999 1.74619 22.7461 1 23.6666 1V-1ZM27.3332 2.66666C27.3332 0.641622 25.6916 -1 23.6666 -1V1C24.5871 1 25.3332 1.74619 25.3332 2.66666H27.3332ZM27.3332 7.82643V2.66666H25.3332V7.82643H27.3332ZM33.9173 9.81286C31.6624 8.20406 29.1034 7.21209 26.4747 6.83648L26.1918 8.81637C28.5121 9.14792 30.7682 10.0229 32.7556 11.4409L33.9173 9.81286ZM32.7787 9.75773C32.707 9.82943 32.6388 9.90351 32.5741 9.97973L34.0988 11.2741C34.1284 11.2392 34.1598 11.2051 34.1929 11.172L32.7787 9.75773ZM36.55 5.9865L32.7787 9.75773L34.193 11.1719L37.9642 7.40071L36.55 5.9865ZM41.7354 5.9865C40.3035 4.55458 37.9819 4.55458 36.55 5.9865L37.9642 7.40071C38.6151 6.74984 39.6703 6.74984 40.3212 7.40072L41.7354 5.9865ZM41.7354 11.1719C43.1673 9.74003 43.1673 7.41842 41.7354 5.9865L40.3212 7.40072C40.9721 8.05159 40.9721 9.10686 40.3212 9.75774L41.7354 11.1719ZM37.9642 14.9432L41.7354 11.1719L40.3212 9.75774L36.55 13.529L37.9642 14.9432ZM37.7423 15.1477C37.8185 15.083 37.8925 15.0148 37.9642 14.9432L36.55 13.529C36.5168 13.5621 36.4827 13.5935 36.4479 13.623L37.7423 15.1477ZM40.8775 21.1891C40.4955 18.5808 39.5062 16.0427 37.9091 13.8045L36.2811 14.9662C37.6888 16.939 38.5614 19.1766 38.8986 21.4789L40.8775 21.1891ZM45 20.334H39.888V22.334H45V20.334ZM48.6667 24.0007C48.6667 21.9756 47.025 20.334 45 20.334V22.334C45.9205 22.334 46.6667 23.0802 46.6667 24.0007H48.6667ZM45 27.6673C47.025 27.6673 48.6667 26.0257 48.6667 24.0007H46.6667C46.6667 24.9211 45.9205 25.6673 45 25.6673V27.6673ZM39.775 27.6673H45V25.6673H39.775V27.6673ZM37.9097 33.5242C39.3603 31.4909 40.3095 29.2102 40.7574 26.8541L38.7926 26.4806C38.3974 28.5597 37.5603 30.5703 36.2816 32.3626L37.9097 33.5242ZM37.9641 32.385C37.8927 32.3137 37.8189 32.2457 37.743 32.1812L36.4482 33.7055C36.4829 33.735 36.5168 33.7662 36.5498 33.7993L37.9641 32.385ZM41.7353 36.1563L37.9641 32.385L36.5498 33.7993L40.3211 37.5705L41.7353 36.1563ZM41.7353 41.3417C43.1672 39.9098 43.1672 37.5882 41.7353 36.1563L40.3211 37.5705C40.972 38.2214 40.972 39.2766 40.3211 39.9275L41.7353 41.3417ZM36.5498 41.3417C37.9818 42.7736 40.3034 42.7736 41.7353 41.3417L40.3211 39.9275C39.6702 40.5784 38.6149 40.5784 37.9641 39.9275L36.5498 41.3417ZM32.7786 37.5705L36.5498 41.3417L37.9641 39.9275L34.1928 36.1563L32.7786 37.5705ZM32.6075 37.3874C32.6621 37.45 32.7192 37.5111 32.7786 37.5705L34.1928 36.1563C34.1653 36.1288 34.1391 36.1007 34.1141 36.072L32.6075 37.3874ZM26.4893 40.7663C29.2688 40.3016 31.8196 39.1628 33.9672 37.5249L32.7544 35.9346C30.8586 37.3804 28.6094 38.3841 26.1595 38.7936L26.4893 40.7663ZM27.3333 40C27.3333 39.8987 27.3292 39.7981 27.3211 39.6985L25.3277 39.8614C25.3314 39.9069 25.3333 39.9531 25.3333 40H27.3333ZM27.3333 45.3333V40H25.3333V45.3333H27.3333ZM23.6667 49C25.6917 49 27.3333 47.3584 27.3333 45.3333H25.3333C25.3333 46.2538 24.5871 47 23.6667 47V49ZM20 45.3333C20 47.3584 21.6416 49 23.6667 49V47C22.7462 47 22 46.2538 22 45.3333H20ZM20 40L20 45.3333L22 45.3333L22 40L20 40ZM20.0123 39.6985C20.0041 39.7981 20 39.8987 20 40H22C22 39.9531 22.0019 39.9069 22.0056 39.8613L20.0123 39.6985ZM13.8504 37.8806C15.8932 39.3278 18.2706 40.336 20.8441 40.7662L21.1739 38.7936C18.9055 38.4143 16.8094 37.5258 15.0065 36.2486L13.8504 37.8806ZM11.5654 41.3419L15.1355 37.7717L13.7213 36.3575L10.1512 39.9277L11.5654 41.3419ZM6.37993 41.3419C7.81185 42.7738 10.1335 42.7738 11.5654 41.3419L10.1512 39.9277C9.50029 40.5785 8.44502 40.5785 7.79414 39.9277L6.37993 41.3419ZM6.37993 36.1564C4.94801 37.5884 4.94801 39.91 6.37993 41.3419L7.79414 39.9277C7.14327 39.2768 7.14327 38.2215 7.79414 37.5707L6.37993 36.1564ZM9.94078 32.5956L6.37993 36.1564L7.79414 37.5707L11.355 34.0098L9.94078 32.5956ZM6.90201 26.8328C7.3381 29.4312 8.36337 31.8294 9.83475 33.8848L11.461 32.7206C10.1624 30.9065 9.25881 28.792 8.87443 26.5018L6.90201 26.8328ZM3.66666 27.6673H7.88822V25.6673H3.66666V27.6673ZM0 24.0007C0 26.0257 1.64162 27.6673 3.66666 27.6673V25.6673C2.74619 25.6673 2 24.9211 2 24.0007H0ZM3.66666 20.334C1.64162 20.334 0 21.9756 0 24.0007H2C2 23.0802 2.74619 22.334 3.66666 22.334V20.334ZM7.88789 20.334H3.66666V22.334H7.88789V20.334ZM10.1371 13.7052C8.5033 15.8494 7.36681 18.3949 6.90166 21.1686L8.87411 21.4994C9.28409 19.0547 10.2857 16.8101 11.7279 14.9174L10.1371 13.7052ZM7.32267 12.1157L10.2254 15.0184L11.6396 13.6042L8.73688 10.7015L7.32267 12.1157ZM7.32267 6.93023C5.89075 8.36215 5.89074 10.6838 7.32267 12.1157L8.73688 10.7015C8.08601 10.0506 8.08601 8.99531 8.73688 8.34444L7.32267 6.93023ZM12.5081 6.93023C11.0762 5.4983 8.75459 5.4983 7.32267 6.93023L8.73688 8.34444C9.38775 7.69357 10.443 7.69357 11.0939 8.34444L12.5081 6.93023ZM15.4928 9.91495L12.5081 6.93023L11.0939 8.34444L14.0786 11.3292L15.4928 9.91495ZM20.8097 6.97625C18.4771 7.42816 16.2199 8.37193 14.2054 9.80772L15.3661 11.4364C17.1419 10.1708 19.1318 9.33852 21.1901 8.93974L20.8097 6.97625ZM19.9999 2.66666V7.958H21.9999V2.66666H19.9999ZM20.6669 17.9993C20.6669 18.9198 19.9207 19.666 19.0002 19.666V21.666C21.0253 21.666 22.6669 20.0244 22.6669 17.9993H20.6669ZM19.0002 16.3327C19.9207 16.3327 20.6669 17.0789 20.6669 17.9993H22.6669C22.6669 15.9743 21.0253 14.3327 19.0002 14.3327V16.3327ZM17.3336 17.9993C17.3336 17.0789 18.0798 16.3327 19.0002 16.3327V14.3327C16.9752 14.3327 15.3336 15.9743 15.3336 17.9993H17.3336ZM19.0002 19.666C18.0798 19.666 17.3336 18.9198 17.3336 17.9993H15.3336C15.3336 20.0244 16.9752 21.666 19.0002 21.666V19.666ZM29.6666 21.666C31.6916 21.666 33.3332 20.0244 33.3332 17.9993H31.3332C31.3332 18.9198 30.5871 19.666 29.6666 19.666V21.666ZM25.9999 17.9993C25.9999 20.0244 27.6415 21.666 29.6666 21.666V19.666C28.7461 19.666 27.9999 18.9198 27.9999 17.9993H25.9999ZM29.6666 14.3327C27.6415 14.3327 25.9999 15.9743 25.9999 17.9993H27.9999C27.9999 17.0789 28.7461 16.3327 29.6666 16.3327V14.3327ZM33.3332 17.9993C33.3332 15.9743 31.6916 14.3327 29.6666 14.3327V16.3327C30.5871 16.3327 31.3332 17.0789 31.3332 17.9993H33.3332ZM15.3334 23.9997C15.3334 26.3866 16.2816 28.6758 17.9694 30.3636L19.3836 28.9494C18.0709 27.6367 17.3334 25.8562 17.3334 23.9997H15.3334ZM24.3334 22.9997H16.3334V24.9997H24.3334V22.9997ZM32.3334 22.9997H24.3334V24.9997H32.3334V22.9997ZM30.6973 30.3636C32.3851 28.6758 33.3334 26.3866 33.3334 23.9997H31.3334C31.3334 25.8562 30.5959 27.6367 29.2831 28.9494L30.6973 30.3636ZM24.3334 32.9997C26.7203 32.9997 29.0095 32.0515 30.6973 30.3636L29.2831 28.9494C27.9703 30.2622 26.1899 30.9997 24.3334 30.9997V32.9997ZM17.9694 30.3636C19.6572 32.0515 21.9464 32.9997 24.3334 32.9997V30.9997C22.4768 30.9997 20.6964 30.2622 19.3836 28.9494L17.9694 30.3636Z" fill="#6A6A6A" mask="url(#path-2-inside-1)"/>
<defs>
<linearGradient id="paint0_linear" x1="41" y1="6.66667" x2="8.66664" y2="41" gradientUnits="userSpaceOnUse">
<stop stop-color="#6FCF97"/>
<stop offset="1" stop-color="#6FCF97" stop-opacity="0.6"/>
</linearGradient>
</defs>
</svg>
